<?xml version="1.0" encoding="utf-8"?>
<!-- Generator: Adobe Illustrator 27.1.1, SVG Export Plug-In . SVG Version: 6.00 Build 0)  -->
<svg version="1.1" id="Layer_1" xmlns="http://www.w3.org/2000/svg" xmlns:xlink="http://www.w3.org/1999/xlink" x="0px" y="0px"
	 viewBox="0 0 1000 354.55" style="enable-background:new 0 0 1000 354.55;" xml:space="preserve">
<style type="text/css">
	.st0{fill:#1B335F;}
	.st1{fill:#FF6D00;}
	.st2{fill:#FFFFFF;}
</style>
<g>
	<g>
		<g>
			<path class="st0" d="M218.99,177.1l110.37,153.24H213.5l-21.96-30.45l-33.67-46.72l-18.78-26.05l-5.88-8.16H66.05l-13.89,19.27
				v61.65h34.49l28.23-39.17l12.08-16.75l0.37-0.5c6.52,8.5,12.64,17.29,18.65,26.18l-0.24,0.37l-12.08,16.75l-9.47,13.13
				l-21.96,30.45H21.68V228.43l6.82-9.47l21.96-30.45h98.34l9.07,12.58l12.88,17.87l5.88,8.16l52.45,72.76h40.76l-58.33-80.92
				l-11.37-15.78l-0.13,0.19l-18.91-26.14l19.03-26.31l69.72-96.27h-40.76l-52.45,72.76l-5.88,8.16l-12.88,17.87l-9.07,12.58H50.45
				L28.5,135.58l-6.82-9.47V24.2h80.55l21.96,30.45l9.47,13.13l11.73,16.26l0.35,0.5l-18.78,26.03l-0.07-0.11l-12.01-16.64
				L86.64,54.66H52.15v61.65l13.89,19.27h67.16l5.88-8.16l18.78-26.05l33.67-46.72L213.5,24.2h115.86L226.98,166.03L218.99,177.1z"
				/>
		</g>
	</g>
	<g>
		<g>
			<g>
				<path class="st0" d="M370.51,268.57h19.3v6.63h-27.95v-43.1h8.64V268.57z"/>
				<path class="st0" d="M417.28,275.83c-4.78,0-8.51-1.47-11.19-4.4c-2.68-2.93-4.03-6.7-4.03-11.32v-1.19
					c0-4.8,1.3-8.72,3.91-11.78c2.6-3.06,6.19-4.58,10.75-4.56c4.3,0,7.6,1.32,9.9,3.95c2.3,2.63,3.45,6.18,3.45,10.64v4.47h-19.1
					l-0.09,0.18c0.14,2.19,0.8,3.97,2,5.33c1.19,1.36,2.96,2.04,5.31,2.04c1.93,0,3.58-0.2,4.93-0.59c1.35-0.39,2.75-1,4.19-1.81
					l2.34,5.33c-1.28,1.05-3.02,1.93-5.21,2.63C422.25,275.47,419.86,275.83,417.28,275.83z M416.71,249.24
					c-1.74,0-3.07,0.6-4.01,1.79c-0.94,1.19-1.51,2.78-1.7,4.75l0.06,0.15h10.54v-0.65c0-1.87-0.38-3.35-1.16-4.43
					C419.67,249.78,418.43,249.24,416.71,249.24z"/>
				<path class="st0" d="M462.47,275.21c-0.32-0.73-0.59-1.5-0.81-2.31c-0.23-0.81-0.39-1.64-0.49-2.49
					c-0.89,1.56-2.06,2.85-3.52,3.88c-1.46,1.02-3.2,1.54-5.21,1.54c-3.36,0-5.94-0.86-7.76-2.59c-1.82-1.73-2.72-4.08-2.72-7.06
					c0-3.14,1.21-5.57,3.63-7.3c2.42-1.73,5.95-2.59,10.58-2.59h4.85v-2.55c0-1.54-0.4-2.73-1.21-3.58
					c-0.81-0.85-2.01-1.27-3.61-1.27c-1.4,0-2.48,0.34-3.24,1.02c-0.76,0.68-1.14,1.61-1.14,2.8h-8.32l-0.06-0.18
					c-0.14-2.7,1.04-5.04,3.54-7c2.5-1.96,5.76-2.95,9.78-2.95c3.85,0,6.96,0.97,9.34,2.9c2.38,1.93,3.57,4.71,3.57,8.32v13.23
					c0,1.5,0.11,2.91,0.34,4.23c0.23,1.32,0.59,2.63,1.08,3.94H462.47z M454.57,269.43c1.5,0,2.84-0.37,4.03-1.13
					c1.18-0.75,1.99-1.62,2.43-2.61v-4.53h-4.85c-1.84,0-3.22,0.45-4.16,1.36c-0.94,0.91-1.41,2.02-1.41,3.35
					c0,1.08,0.35,1.95,1.05,2.59C452.35,269.11,453.33,269.43,454.57,269.43z"/>
				<path class="st0" d="M501.48,250.6l-3.17-0.09c-1.28,0-2.34,0.27-3.17,0.8c-0.83,0.53-1.46,1.28-1.89,2.25v21.64h-8.61v-32.03
					h8.02l0.38,4.74c0.75-1.68,1.72-2.98,2.92-3.92c1.19-0.94,2.57-1.41,4.13-1.41c0.43,0,0.83,0.04,1.2,0.1
					c0.36,0.07,0.73,0.15,1.11,0.25L501.48,250.6z"/>
				<path class="st0" d="M522.38,243.17l0.38,4.59c1.07-1.64,2.38-2.91,3.94-3.82c1.56-0.91,3.3-1.36,5.24-1.36
					c3.24,0,5.76,1.04,7.58,3.12c1.82,2.08,2.72,5.37,2.72,9.87v19.63h-8.68v-19.6c0-2.29-0.4-3.91-1.2-4.87
					c-0.8-0.96-2-1.44-3.6-1.44c-1.28,0-2.41,0.24-3.39,0.73c-0.98,0.48-1.78,1.15-2.41,2v23.18h-8.64v-32.03H522.38z"/>
				<path class="st0" d="M566.27,235.51h-8.64v-6.48h8.64V235.51z M566.27,275.21h-8.64v-32.03h8.64V275.21z"/>
				<path class="st0" d="M589.77,243.17l0.38,4.59c1.07-1.64,2.38-2.91,3.94-3.82c1.56-0.91,3.31-1.36,5.24-1.36
					c3.24,0,5.76,1.04,7.58,3.12c1.82,2.08,2.72,5.37,2.72,9.87v19.63h-8.68v-19.6c0-2.29-0.4-3.91-1.2-4.87s-2-1.44-3.6-1.44
					c-1.28,0-2.41,0.24-3.39,0.73c-0.98,0.48-1.78,1.15-2.41,2v23.18h-8.64v-32.03H589.77z"/>
				<path class="st0" d="M623.3,259.46c0-5.05,1.1-9.13,3.29-12.23c2.19-3.1,5.27-4.65,9.24-4.65c1.8,0,3.38,0.4,4.74,1.21
					c1.36,0.81,2.53,1.96,3.49,3.46l0.68-4.08h7.43v31.88c0,4.16-1.36,7.39-4.08,9.67c-2.72,2.28-6.52,3.42-11.4,3.42
					c-1.62,0-3.34-0.22-5.15-0.67c-1.82-0.44-3.49-1.05-5.03-1.82l1.45-6.45c1.32,0.63,2.69,1.11,4.1,1.44
					c1.41,0.33,2.94,0.49,4.57,0.49c2.37,0,4.11-0.49,5.23-1.48c1.11-0.99,1.67-2.53,1.67-4.62v-2.9c-0.95,1.21-2.06,2.12-3.34,2.75
					c-1.28,0.63-2.75,0.95-4.41,0.95c-3.93,0-6.99-1.44-9.18-4.32c-2.19-2.88-3.29-6.69-3.29-11.43V259.46z M631.95,260.08
					c0,2.8,0.47,5.01,1.41,6.62c0.94,1.61,2.47,2.41,4.6,2.41c1.32,0,2.44-0.24,3.36-0.72c0.92-0.48,1.65-1.19,2.2-2.12v-13.89
					c-0.55-0.99-1.29-1.75-2.2-2.28c-0.92-0.53-2.02-0.8-3.3-0.8c-2.11,0-3.65,0.94-4.62,2.81c-0.97,1.88-1.45,4.32-1.45,7.34
					V260.08z"/>
			</g>
		</g>
		<g>
			<g>
				<path class="st1" d="M619.14,72.42c12.95,0,26-1.05,38.81,0.26c16.62,1.71,29.34,10.16,33.61,27.41
					c4.47,18.01,0.71,33.93-14.18,46.2c-1.53,1.26-3.14,2.41-4.76,3.55c-5.39,3.77-5.94,5.64-2.33,10.99
					c4.33,6.41,8.55,12.99,13.64,18.76c3.19,3.61,7.68,6.31,12.01,8.62c3.45,1.84,5.74,3.84,5.07,7.82
					c-0.64,3.84-3.41,5.15-7.11,5.13c-12.25-0.05-24.49,0.07-36.74-0.06c-6.27-0.07-8.47-3.67-5.43-9.29
					c2.11-3.91,1.63-7.29-0.65-10.6c-5.73-8.29-11.41-16.64-17.58-24.59c-1.43-1.84-5.24-3.56-7.06-2.89
					c-1.95,0.71-3.61,4.19-4.01,6.68c-0.65,4.04-0.29,8.26-0.15,12.4c0.24,6.92,3.62,12.03,9.76,15.02c3.66,1.79,6.06,4.03,5.17,8.3
					c-0.94,4.48-4.36,5.07-8.29,5.05c-14.05-0.09-28.09-0.07-42.14-0.01c-3.69,0.02-6.97-0.52-7.96-4.75
					c-0.98-4.2,1.01-6.66,4.8-8.45c6.62-3.14,10.02-8.66,10.04-15.98c0.07-23.77,0.07-47.54,0-71.31c-0.02-7.29-3.28-12.85-9.97-16
					c-3.72-1.76-5.83-4.17-4.87-8.44c0.96-4.3,4.17-4.78,7.88-4.75c10.8,0.09,21.61,0.03,32.41,0.03
					C619.14,71.82,619.14,72.12,619.14,72.42z M622.27,111.92c0,6.47-0.09,12.93,0.03,19.4c0.11,5.72,2.24,7.85,7.78,7.97
					c3.95,0.09,7.91,0.13,11.85-0.03c9.69-0.38,16.19-5.32,19.47-14.34c2.99-8.21,2.97-16.58,0.23-24.84
					c-3.17-9.55-10.12-14.56-20.16-14.83c-3.77-0.1-7.54-0.08-11.32-0.01c-5.74,0.11-7.74,2.03-7.86,7.81
					C622.17,99.35,622.27,105.64,622.27,111.92z"/>
				<path class="st1" d="M385.93,71.52c7.38,0,14.76,0.05,22.14-0.02c3.42-0.03,6.13,0.89,6.85,4.62c0.69,3.56-0.36,6.45-3.87,8
					c-8.35,3.69-11.43,10.38-11.15,19.12c0.27,8.27-0.01,16.57,0.7,24.8c0.58,6.77,3.69,7.88,8.71,3.16
					c11.02-10.35,21.85-20.91,32.48-31.66c5.38-5.45,4.58-10.91-1.79-15.28c-3.12-2.14-4.35-4.76-3.22-8.29
					c1.08-3.37,3.6-4.53,7.1-4.49c12.06,0.12,24.12,0.1,36.18,0.02c3.71-0.02,6.45,1.14,7.06,5.07c0.56,3.63-0.84,6.4-4.55,7.52
					c-9.41,2.86-16.9,8.72-23.83,15.35c-6.89,6.6-13.48,13.51-20.25,20.23c-3.96,3.93-4.2,8.03-1.09,12.58
					c10.24,15.01,20.39,30.08,30.64,45.09c3.62,5.3,7.94,9.68,14.54,11.34c3.64,0.92,5.17,3.84,4.51,7.53
					c-0.65,3.59-3.19,4.96-6.67,4.95c-12.06-0.02-24.12,0.11-36.18-0.05c-7.03-0.1-10.18-4.85-7.32-11.26
					c1.56-3.49,0.89-6.04-1.12-8.95c-6.24-9.03-12.29-18.19-18.43-27.29c-5.02-7.44-5.75-7.5-11.88-1.1
					c-6.6,6.89-8.09,21.47-2.46,29.25c2,2.77,5.2,4.85,8.19,6.7c3.28,2.02,4.95,4.88,3.41,8.05c-1.01,2.07-4.07,4.38-6.27,4.44
					c-15.11,0.38-30.24,0.39-45.36,0c-2.19-0.06-5.76-2.62-6.1-4.49c-0.42-2.31,1.17-6.52,3.1-7.47
					c9.09-4.49,11.72-11.67,11.59-21.2c-0.31-21.78-0.18-43.57-0.06-65.35c0.05-8.4-3.04-14.63-10.88-18.17
					c-3.41-1.54-4.92-4.19-4.12-7.85c0.83-3.83,3.55-4.98,7.25-4.92C371.16,71.6,378.55,71.52,385.93,71.52z"/>
				<path class="st1" d="M818.26,201.15c-7.56,0-15.12-0.07-22.69,0.03c-3.9,0.05-6.89-1.18-7.49-5.32
					c-0.6-4.12,1.98-6.15,5.64-7.31c7.92-2.52,9.08-4.9,5.9-12.77c-6.25-15.46-3.41-12.97-19.05-13.14
					c-9.36-0.1-18.73,0.13-28.08-0.08c-4.41-0.1-7.25,1.33-8.44,5.73c-0.56,2.07-1.48,4.05-2.21,6.08
					c-2.61,7.24-0.98,11.05,6.31,13.91c3.81,1.49,6.32,3.69,5.43,8.01c-0.86,4.17-4.12,4.92-7.87,4.89
					c-9.18-0.08-18.36-0.07-27.55-0.01c-3.85,0.03-6.85-1.06-7.46-5.31c-0.58-4.06,1.52-6.4,5.31-7.56
					c6.56-2,10.36-6.56,12.65-12.94c9.42-26.23,19.04-52.38,28.55-78.58c2.75-7.57,2.23-8.33-3.75-13.62
					c-1.64-1.45-2.74-4.84-2.28-6.94c0.4-1.84,3.29-4.34,5.18-4.43c9.7-0.46,19.46-0.59,29.14,0.04c2.07,0.13,4.72,3.56,5.72,6.03
					c11.56,28.49,22.85,57.09,34.21,85.66c1.59,4.01,3.21,8.01,4.75,12.04c2.39,6.25,6.56,10.69,13.04,12.69
					c3.98,1.23,6.27,3.69,5.48,7.96c-0.77,4.21-3.99,5.01-7.77,4.97C833.39,201.08,825.82,201.15,818.26,201.15z M769.48,104.95
					c-1.34,1.03-1.99,1.26-2.16,1.69c-4.51,11.88-9.19,23.7-13.32,35.71c-1.45,4.22,1.62,6.37,5.63,6.53
					c5.74,0.23,11.5,0.25,17.24,0.17c8.43-0.12,10.5-2.92,7.57-10.74c-3.47-9.24-7.26-18.35-11.09-27.45
					C772.5,108.84,770.93,107.11,769.48,104.95z"/>
				<path class="st1" d="M932.51,133.24c0,12.43,0.09,24.85-0.03,37.28c-0.08,8.21,3.17,14.27,10.7,17.76
					c3.67,1.7,5.2,4.43,4.19,8.27c-0.99,3.79-3.94,4.66-7.54,4.64c-14.41-0.08-28.81-0.06-43.22-0.01c-3.54,0.01-6.58-0.7-7.47-4.64
					c-0.87-3.82,0.5-6.57,4.23-8.28c7.57-3.45,10.74-9.63,10.72-17.78c-0.05-25.21,0.01-50.42-0.03-75.63
					c-0.01-7.79-1.89-9.61-9.46-9.62c-13.91-0.01-19.98,4.39-25.13,18.28c-0.87,2.36-1.2,5.01-2.49,7.09
					c-0.98,1.59-3.22,3.58-4.65,3.4c-1.51-0.19-3.13-2.54-3.96-4.3c-0.61-1.29-0.24-3.18,0.05-4.74
					c1.97-10.61,3.87-21.24,6.17-31.78c0.52-2.38,2.08-5.24,4.02-6.32c1.15-0.64,3.96,1.87,6.09,2.79c1.73,0.75,3.58,1.77,5.37,1.78
					c25.39,0.12,50.78,0.15,76.17-0.05c2.18-0.02,4.69-1.4,6.44-2.87c3.87-3.24,7.52-2.88,8.56,1.87c2.7,12.3,5.1,24.67,7.03,37.1
					c0.32,2.07-2.28,4.6-3.53,6.92c-1.98-1.72-4.63-3.07-5.82-5.23c-2.49-4.53-3.7-9.79-6.35-14.2c-5.12-8.5-16.2-12.35-25.56-9.45
					c-4.07,1.26-4.51,4.69-4.51,8.27C932.52,106.94,932.52,120.09,932.51,133.24z"/>
				<path class="st1" d="M532.06,71.52c7.38,0,14.76,0.07,22.14-0.03c3.41-0.05,6.15,0.84,7.06,4.43c0.98,3.86-0.57,6.7-4.17,8.34
					c-7.84,3.57-10.82,9.79-10.75,18.21c0.18,22.68,0.16,45.36,0.01,68.04c-0.05,8.24,3.08,14.25,10.62,17.76
					c3.34,1.55,5.12,4.02,4.37,7.73c-0.83,4.09-3.75,5.22-7.64,5.2c-14.4-0.09-28.8-0.09-43.2,0c-3.85,0.02-6.89-1.03-7.75-5.09
					c-0.85-3.95,1.25-6.36,4.75-8.04c7.04-3.37,10.25-9.08,10.22-16.9c-0.09-23.04-0.12-46.08,0.02-69.12
					c0.05-8.24-3.06-14.24-10.65-17.72c-3.33-1.53-5.11-4.03-4.32-7.76c0.87-4.09,3.8-5.17,7.69-5.08
					C517.66,71.63,524.86,71.52,532.06,71.52z"/>
			</g>
		</g>
	</g>
</g>
</svg>
